<svg width="62" height="22" viewBox="0 0 62 22" fill="none" xmlns="http://www.w3.org/2000/svg">
<path d="M62 0L16.6415 19.5777C12.8801 21.1908 9.72068 22 7.16574 22C4.27239 22 2.17212 20.9735 0.870109 18.9177C0.0511861 17.5979 -0.189066 15.9245 0.14677 13.895C0.482606 11.8655 1.37645 9.70504 2.82312 7.40579C4.02955 5.54648 6.00582 3.1032 8.75709 0.0733243C7.82389 1.56251 7.13957 3.19763 6.73174 4.91275C6.0084 8.04214 6.6594 10.3388 8.68475 11.8053C9.64834 12.4887 10.9736 12.8318 12.6631 12.8318C14.0116 12.8318 15.5306 12.6118 17.2202 12.1719L62 0Z" fill="white"/>
</svg>
