<svg width="20" height="23" viewBox="0 0 20 23" fill="none" xmlns="http://www.w3.org/2000/svg">
<path d="M18.8609 15.9995V16.0033V17.4429C18.8609 18.3641 18.2187 19.3567 16.6863 20.1737C15.1742 20.98 12.9711 21.5 10.361 21.5C7.75101 21.5 5.54788 20.9794 4.03558 20.173C2.50261 19.3557 1.86098 18.3636 1.86098 17.4455L1.86098 16.0033L1.86097 15.9995C1.8604 15.8497 1.88989 15.7008 1.94821 15.5612C2.00655 15.4215 2.09284 15.2933 2.20303 15.1844C2.31326 15.0755 2.44525 14.988 2.59191 14.9279C2.73829 14.8678 2.89587 14.8365 3.05552 14.836H17.6685C17.8278 14.8367 17.985 14.8683 18.1311 14.9283C18.2775 14.9885 18.4093 15.076 18.5194 15.1849C18.6295 15.2938 18.7156 15.4219 18.7738 15.5615C18.8321 15.701 18.8615 15.8498 18.8609 15.9995ZM19.8609 16.0033V17.4429C19.8609 20.3353 15.8167 22.5 10.361 22.5C4.90526 22.5 0.860977 20.3327 0.860977 17.4455V16.0033H19.8609ZM14.7895 5.83115C14.79 6.39782 14.6768 6.95947 14.4559 7.48418C14.2351 8.00892 13.9107 8.48699 13.5004 8.89062C13.09 9.29428 12.6017 9.61553 12.063 9.83518C11.5242 10.0548 10.946 10.1683 10.3616 10.1688C9.77719 10.1692 9.19883 10.0566 8.6597 9.83768C8.12059 9.61883 7.63182 9.29829 7.22081 8.89522C6.80985 8.4922 6.48472 8.0146 6.26308 7.49017C6.04145 6.96578 5.9274 6.40429 5.92697 5.83762C5.9261 4.69394 6.38767 3.59305 7.21612 2.77815C8.04519 1.96265 9.17391 1.50087 10.3549 1.5C11.5359 1.49913 12.6654 1.95925 13.4957 2.77354C14.3254 3.58724 14.7887 4.68747 14.7895 5.83115Z" stroke="white" stroke-width="2"/>
</svg>
